<svg width="48" height="48" viewBox="0 0 48 48" fill="none" xmlns="http://www.w3.org/2000/svg">
<path d="M30.5 40.5C30.5 41.6457 29.4516 43.1445 26.6771 44.4451C24.0221 45.6896 20.2488 46.5 16 46.5C11.7512 46.5 7.97793 45.6896 5.32294 44.4451C2.54839 43.1445 1.5 41.6457 1.5 40.5C1.5 39.3543 2.54839 37.8555 5.32294 36.5549C7.97793 35.3104 11.7512 34.5 16 34.5C20.2488 34.5 24.0221 35.3104 26.6771 36.5549C29.4516 37.8555 30.5 39.3543 30.5 40.5Z" stroke="#152C5B" stroke-width="3"/>
<path d="M28.387 12.3756C28.3953 12.4837 28.4037 12.5899 28.4119 12.6947C28.4381 13.0289 28.4633 13.3494 28.484 13.6748L29.981 13.5798L28.484 13.6748C28.5774 15.1484 28.2654 17.6001 27.5666 20.5437C26.8765 23.4507 25.8395 26.713 24.5656 29.7626C23.2862 32.8253 21.7974 35.602 20.2289 37.5855C18.6033 39.6411 17.1697 40.5 16.0469 40.5C14.9343 40.5 13.497 39.6597 11.859 37.6588C10.2776 35.727 8.76267 33.0178 7.45886 30.017C6.16031 27.0282 5.10086 23.8191 4.40479 20.9333C3.69997 18.0112 3.39996 15.5511 3.52901 14.0132C3.57058 13.5179 3.62637 13.0324 3.68546 12.5181C3.70098 12.3831 3.71672 12.2461 3.73249 12.1064C4.00278 9.71292 5.43184 7.0427 7.6895 4.95696C9.93286 2.88443 12.8749 1.5 16.0469 1.5C19.2796 1.5 22.2736 2.93815 24.5314 5.0758C26.8051 7.22839 28.201 9.96462 28.387 12.3756Z" fill="white" stroke="#152C5B" stroke-width="3"/>
<path d="M20.5 13C20.5 15.4853 18.4853 17.5 16 17.5C13.5147 17.5 11.5 15.4853 11.5 13C11.5 10.5147 13.5147 8.5 16 8.5C18.4853 8.5 20.5 10.5147 20.5 13Z" fill="white" stroke="#FF498B" stroke-width="3"/>
</svg>
