<svg width="48" height="48" viewBox="0 0 48 48" fill="none" xmlns="http://www.w3.org/2000/svg">
<path d="M42 24L42 8.03746C42 6.83146 41.2005 5.77158 40.0409 5.44027L39.7052 5.34433C38.9309 5.12311 38.1015 5.20496 37.3854 5.57323V5.57323C36.8388 5.85436 36.36 6.25137 35.9827 6.73658L35 8" stroke="#FF498B" stroke-width="3" stroke-linecap="round"/>
<rect x="1.5" y="24.5" width="45" height="7" rx="2.5" stroke="#152C5B" stroke-width="3"/>
<path d="M5.5 31.5H42.5V39C42.5 40.933 40.933 42.5 39 42.5H9C7.067 42.5 5.5 40.933 5.5 39V31.5Z" stroke="#152C5B" stroke-width="3"/>
<path d="M37 44L37 46" stroke="#152C5B" stroke-width="3" stroke-linecap="round"/>
<path d="M11 44L11 46" stroke="#152C5B" stroke-width="3" stroke-linecap="round"/>
</svg>
