<svg width="48" height="48" viewBox="0 0 48 48" fill="none" xmlns="http://www.w3.org/2000/svg">
<path d="M4.62757 18.6381C4.92947 17.558 5.91376 16.8111 7.03529 16.8111H40.9647C42.0862 16.8111 43.0705 17.558 43.3724 18.6381L45.1364 24.9493C45.5819 26.5431 44.3837 28.1222 42.7287 28.1222H5.27132C3.61635 28.1222 2.4181 26.5431 2.8636 24.9493L4.62757 18.6381Z" stroke="#152C5B" stroke-width="3"/>
<mask id="path-2-inside-1_8_81" fill="white">
<path d="M12 26.5556C12.5523 26.5556 13 27.0033 13 27.5556L13 43C13 45.2091 11.2091 47 9 47C6.79086 47 5 45.2091 5 43L5 27.5556C5 27.0033 5.44772 26.5556 6 26.5556L12 26.5556Z"/>
</mask>
<path d="M12 26.5556C12.5523 26.5556 13 27.0033 13 27.5556L13 43C13 45.2091 11.2091 47 9 47C6.79086 47 5 45.2091 5 43L5 27.5556C5 27.0033 5.44772 26.5556 6 26.5556L12 26.5556Z" stroke="#152C5B" stroke-width="6" mask="url(#path-2-inside-1_8_81)"/>
<path d="M16 10.2L16 16.3333" stroke="#152C5B" stroke-width="3" stroke-linecap="round"/>
<path d="M32 10.2L32 16.3333" stroke="#152C5B" stroke-width="3" stroke-linecap="round"/>
<mask id="path-5-inside-2_8_81" fill="white">
<path d="M42 26.5556C42.5523 26.5556 43 27.0033 43 27.5556L43 43C43 45.2091 41.2091 47 39 47C36.7909 47 35 45.2091 35 43L35 27.5556C35 27.0033 35.4477 26.5556 36 26.5556L42 26.5556Z"/>
</mask>
<path d="M42 26.5556C42.5523 26.5556 43 27.0033 43 27.5556L43 43C43 45.2091 41.2091 47 39 47C36.7909 47 35 45.2091 35 43L35 27.5556C35 27.0033 35.4477 26.5556 36 26.5556L42 26.5556Z" stroke="#152C5B" stroke-width="6" mask="url(#path-5-inside-2_8_81)"/>
<path d="M13.5 2.5L18.5 2.5L18.5 7.22223C18.5 8.60294 17.3807 9.72222 16 9.72222C14.6193 9.72222 13.5 8.60293 13.5 7.22222L13.5 2.5Z" stroke="#FF498B" stroke-width="3"/>
<path d="M29.5 2.5L34.5 2.5L34.5 7.22223C34.5 8.60294 33.3807 9.72222 32 9.72222C30.6193 9.72222 29.5 8.60293 29.5 7.22222L29.5 2.5Z" stroke="#FF498B" stroke-width="3"/>
</svg>
