<svg width="48" height="48" viewBox="0 0 48 48" fill="none" xmlns="http://www.w3.org/2000/svg">
<mask id="path-1-inside-1_4_84" fill="white">
<path fill-rule="evenodd" clip-rule="evenodd" d="M20.1324 12C19.4299 12 18.7788 12.3686 18.4174 12.971L15.4 18H8C3.58172 18 0 21.5817 0 26V40C0 44.4183 3.58172 48 8 48H40C44.4183 48 48 44.4183 48 40V26C48 21.5817 44.4183 18 40 18H32.6L29.5826 12.971C29.2212 12.3686 28.5701 12 27.8676 12H20.1324Z"/>
</mask>
<path d="M18.4174 12.971L20.9899 14.5145V14.5145L18.4174 12.971ZM15.4 18V21H17.0986L17.9725 19.5435L15.4 18ZM32.6 18L30.0275 19.5435L30.9014 21H32.6V18ZM29.5826 12.971L32.1551 11.4275V11.4275L29.5826 12.971ZM20.9899 14.5145C20.8092 14.8157 20.4836 15 20.1324 15V9C18.3761 9 16.7485 9.9215 15.8449 11.4275L20.9899 14.5145ZM17.9725 19.5435L20.9899 14.5145L15.8449 11.4275L12.8275 16.4565L17.9725 19.5435ZM8 21H15.4V15H8V21ZM3 26C3 23.2386 5.23858 21 8 21V15C1.92487 15 -3 19.9249 -3 26H3ZM3 40V26H-3V40H3ZM8 45C5.23858 45 3 42.7614 3 40H-3C-3 46.0751 1.92487 51 8 51V45ZM40 45H8V51H40V45ZM45 40C45 42.7614 42.7614 45 40 45V51C46.0751 51 51 46.0751 51 40H45ZM45 26V40H51V26H45ZM40 21C42.7614 21 45 23.2386 45 26H51C51 19.9249 46.0751 15 40 15V21ZM32.6 21H40V15H32.6V21ZM27.0101 14.5145L30.0275 19.5435L35.1725 16.4565L32.1551 11.4275L27.0101 14.5145ZM27.8676 15C27.5164 15 27.1909 14.8157 27.0101 14.5145L32.1551 11.4275C31.2515 9.92149 29.6239 9 27.8676 9V15ZM20.1324 15H27.8676V9H20.1324V15Z" fill="#152C5B" mask="url(#path-1-inside-1_4_84)"/>
<circle cx="24" cy="31" r="6.5" stroke="#FF498B" stroke-width="3"/>
<path d="M41 24L34 24" stroke="#152C5B" stroke-width="3" stroke-linecap="round"/>
</svg>
