<svg width="48" height="48" viewBox="0 0 48 48" fill="none" xmlns="http://www.w3.org/2000/svg">
<path d="M16 27C17.7345 24.7493 20.5845 23 23.8063 23C27.0281 23 29.8781 24.7493 31.6126 27" stroke="#152C5B" stroke-width="3" stroke-linecap="round"/>
<path d="M8 16C11.4691 11.4985 17.169 8 23.6126 8C30.0562 8 35.7562 11.4985 39.2252 16" stroke="#152C5B" stroke-width="3" stroke-linecap="round"/>
<path d="M12 21C14.6018 17.6239 18.8768 15 23.7095 15C28.5422 15 32.8171 17.6239 35.4189 21" stroke="#152C5B" stroke-width="3" stroke-linecap="round"/>
<path d="M27.5 34.5C27.5 36.7091 25.7091 38.5 23.5 38.5C21.2909 38.5 19.5 36.7091 19.5 34.5C19.5 32.2909 21.2909 30.5 23.5 30.5C25.7091 30.5 27.5 32.2909 27.5 34.5Z" fill="white" stroke="#FF498B" stroke-width="3"/>
</svg>
