<svg width="48" height="48" viewBox="0 0 48 48" fill="none" xmlns="http://www.w3.org/2000/svg">
<path d="M1.5 21C1.5 17.4101 4.41015 14.5 8 14.5H21C24.5899 14.5 27.5 17.4101 27.5 21V40C27.5 43.5899 24.5899 46.5 21 46.5H8C4.41015 46.5 1.5 43.5898 1.5 40V21Z" stroke="#152C5B" stroke-width="3"/>
<path d="M9.5 4C9.5 2.61929 10.6193 1.5 12 1.5H18C19.3807 1.5 20.5 2.61929 20.5 4V14.5H9.5V4Z" stroke="#152C5B" stroke-width="3"/>
<line x1="8.5" y1="22.5" x2="8.5" y2="37.5" stroke="#FF498B" stroke-width="3" stroke-linecap="round"/>
<path d="M21.5 22.5V37.5" stroke="#FF498B" stroke-width="3" stroke-linecap="round"/>
<path d="M15 26.5L15 33.5" stroke="#FF498B" stroke-width="3" stroke-linecap="round"/>
</svg>
