<svg width="48" height="48" viewBox="0 0 48 48" fill="none" xmlns="http://www.w3.org/2000/svg">
<path d="M15 15.5H19C20.3807 15.5 21.5 16.6193 21.5 18V24.5H12.5V18C12.5 16.6193 13.6193 15.5 15 15.5Z" stroke="#FF498B" stroke-width="3"/>
<path d="M29 15.5H33C34.3807 15.5 35.5 16.6193 35.5 18V24.5H26.5V18C26.5 16.6193 27.6193 15.5 29 15.5Z" stroke="#FF498B" stroke-width="3"/>
<path d="M14 1.5H34C38.6944 1.5 42.5 5.30558 42.5 10V24.5H5.5V10C5.5 5.30558 9.30558 1.5 14 1.5Z" stroke="#152C5B" stroke-width="3"/>
<mask id="path-4-inside-1_53_68" fill="white">
<path d="M0 27C0 24.7909 1.79086 23 4 23H44C46.2091 23 48 24.7909 48 27V37C48 38.1046 47.1046 39 46 39H2C0.895431 39 0 38.1046 0 37V27Z"/>
</mask>
<path d="M0 27C0 24.7909 1.79086 23 4 23H44C46.2091 23 48 24.7909 48 27V37C48 38.1046 47.1046 39 46 39H2C0.895431 39 0 38.1046 0 37V27Z" stroke="#152C5B" stroke-width="6" mask="url(#path-4-inside-1_53_68)"/>
<path d="M41.5 42L6 42" stroke="#152C5B" stroke-width="3" stroke-linecap="round"/>
<path d="M42 39L42 46" stroke="#152C5B" stroke-width="3" stroke-linecap="round"/>
<path d="M6 39L6 46" stroke="#152C5B" stroke-width="3" stroke-linecap="round"/>
</svg>
